<svg width="584" height="584" viewBox="0 0 584 584" fill="none" xmlns="http://www.w3.org/2000/svg">
<circle cx="292" cy="292" r="292" fill="url(#paint0_linear_101_5)"/>
<circle cx="291.5" cy="248.5" r="239.5" fill="#23242A"/>
<path d="M167.016 274.408C168.552 276.029 170.344 277.309 172.392 278.248C174.44 279.187 176.616 279.656 178.92 279.656C181.309 279.656 183.528 279.187 185.576 278.248C187.709 277.309 189.587 276.029 191.208 274.408C192.744 272.872 193.981 271.08 194.92 269.032C195.859 266.899 196.328 264.637 196.328 262.248C196.328 259.859 195.859 257.64 194.92 255.592C193.981 253.459 192.744 251.624 191.208 250.088C189.587 248.552 187.709 247.357 185.576 246.504C183.528 245.565 181.309 245.096 178.92 245.096C176.616 245.096 174.44 245.565 172.392 246.504C170.344 247.357 168.552 248.552 167.016 250.088C165.48 251.624 164.285 253.459 163.432 255.592C162.579 257.64 162.152 259.859 162.152 262.248C162.152 264.637 162.579 266.899 163.432 269.032C164.285 271.08 165.48 272.872 167.016 274.408ZM198.632 281.832C196.072 284.392 193.085 286.397 189.672 287.848C186.344 289.299 182.76 290.024 178.92 290.024C175.251 290.024 171.752 289.341 168.424 287.976C165.181 286.611 162.323 284.733 159.848 282.344C157.288 280.04 155.24 277.309 153.704 274.152C152.168 270.909 151.315 267.453 151.144 263.784C151.144 257.64 152.424 251.923 154.984 246.632C157.629 241.256 161 236.264 165.096 231.656C169.192 227.048 173.757 222.739 178.792 218.728C183.827 214.717 188.733 210.963 193.512 207.464C194.621 208.829 195.731 210.195 196.84 211.56C197.949 212.925 199.059 214.291 200.168 215.656C197.523 217.448 195.048 219.197 192.744 220.904C190.525 222.525 188.435 224.104 186.472 225.64C184.424 227.261 182.547 228.84 180.84 230.376C179.219 231.827 177.683 233.32 176.232 234.856C176.659 234.856 177.085 234.856 177.512 234.856C178.024 234.771 178.493 234.728 178.92 234.728C182.76 234.728 186.344 235.453 189.672 236.904C193.085 238.269 196.072 240.189 198.632 242.664C201.192 245.224 203.197 248.168 204.648 251.496C206.184 254.824 206.952 258.408 206.952 262.248C206.952 266.088 206.184 269.715 204.648 273.128C203.197 276.456 201.192 279.357 198.632 281.832ZM246.956 289H215.98V278.888H226.092V209.512H215.98V199.4H246.956V209.512H236.716V238.824H285.1V209.512H274.86V199.4H305.836V209.512H295.724V278.888H305.836V289H274.86V278.888H285.1V248.936H236.716V278.888H246.956V289ZM372.583 289H341.607V278.888H351.207V265.576H315.111L361.959 204.776V255.208H374.375V265.576H361.959V278.888H372.583V289ZM351.207 236.136L336.615 255.208H351.207V236.136ZM395.405 289H383.245L416.141 216.296H390.029V222.312H379.917V205.8H432.781L395.405 289Z" fill="#F5F9FA"/>
<defs>
<linearGradient id="paint0_linear_101_5" x1="292" y1="0" x2="292" y2="584" gradientUnits="userSpaceOnUse">
<stop stop-color="#279ED5"/>
<stop offset="1" stop-color="#27D5A1"/>
</linearGradient>
</defs>
</svg>
